<svg xmlns="http://www.w3.org/2000/svg" viewBox="0 0 100 100">
  <!-- Base rock shape -->
  <path d="M20,70 Q25,50 40,45 Q60,35 75,45 Q85,55 85,70 Q80,85 60,90 Q40,95 25,85 Q15,75 20,70 Z" 
        fill="#808080" />
  
  <!-- Rock details and highlights -->
  <path d="M30,70 Q35,60 45,55 Q65,50 75,60 Q75,75 60,80 Q40,85 30,70 Z" 
        fill="#909090" />
  
  <!-- Texture lines -->
  <path d="M30,60 L40,58 M45,55 L55,57 M60,60 L70,63 M50,70 L60,73 M35,75 L45,78" 
        stroke="#707070" stroke-width="2" fill="none" />
  
  <!-- Shadow at bottom -->
  <ellipse cx="50" cy="90" rx="35" ry="5" fill="rgba(0,0,0,0.2)" />
</svg>